<svg width="24" height="24" viewBox="0 0 24 24" fill="none" xmlns="http://www.w3.org/2000/svg">
<path d="M22.1945 8.83696C21.8904 8.65387 21.6534 8.37783 21.5183 8.04964C21.3833 7.72144 21.3574 7.35851 21.4445 7.01446C21.6029 6.39627 21.5975 5.74745 21.4287 5.13199C21.2599 4.51654 20.9336 3.95572 20.482 3.50484C20.0303 3.05395 19.4689 2.72859 18.8532 2.56084C18.2375 2.39308 17.5886 2.38873 16.9707 2.54821C16.6272 2.63504 16.2649 2.60899 15.9373 2.47392C15.6098 2.33885 15.3344 2.10193 15.152 1.79821C14.8269 1.25028 14.3649 0.796355 13.8113 0.481072C13.2577 0.16579 12.6316 0 11.9945 0C11.3574 0 10.7312 0.16579 10.1776 0.481072C9.62403 0.796355 9.162 1.25028 8.83696 1.79821C8.65475 2.1031 8.37881 2.34089 8.05034 2.47606C7.72187 2.61123 7.3585 2.63654 7.01446 2.54821C6.39665 2.39006 5.74829 2.39557 5.13326 2.5642C4.51822 2.73283 3.95772 3.05877 3.50696 3.5099C3.0562 3.96104 2.73073 4.52181 2.56262 5.13699C2.3945 5.75217 2.38954 6.40053 2.54821 7.01821C2.63566 7.36171 2.6099 7.72426 2.47477 8.05194C2.33964 8.37963 2.10236 8.65495 1.79821 8.83696C1.25028 9.162 0.796355 9.62403 0.481072 10.1776C0.16579 10.7312 0 11.3574 0 11.9945C0 12.6316 0.16579 13.2577 0.481072 13.8113C0.796355 14.3649 1.25028 14.8269 1.79821 15.152C2.10267 15.3346 2.34008 15.6106 2.4752 15.9389C2.61031 16.2673 2.63592 16.6304 2.54821 16.9745C2.39006 17.5923 2.39557 18.2406 2.5642 18.8557C2.73283 19.4707 3.05877 20.0312 3.5099 20.482C3.96104 20.9327 4.52181 21.2582 5.13699 21.4263C5.75217 21.5944 6.40053 21.5994 7.01821 21.4407C7.36171 21.3539 7.72404 21.3799 8.05159 21.515C8.37914 21.6501 8.65451 21.887 8.83696 22.1907C9.162 22.7387 9.62403 23.1926 10.1776 23.5079C10.7312 23.8231 11.3574 23.9889 11.9945 23.9889C12.6316 23.9889 13.2577 23.8231 13.8113 23.5079C14.3649 23.1926 14.8269 22.7387 15.152 22.1907C15.3351 21.8867 15.6111 21.6496 15.9393 21.5146C16.2675 21.3795 16.6304 21.3536 16.9745 21.4407C17.5923 21.5989 18.2406 21.5934 18.8557 21.4247C19.4707 21.2561 20.0312 20.9302 20.482 20.479C20.9327 20.0279 21.2582 19.4671 21.4263 18.8519C21.5944 18.2368 21.5994 17.5884 21.4407 16.9707C21.3539 16.6272 21.3799 16.2649 21.515 15.9373C21.6501 15.6098 21.887 15.3344 22.1907 15.152C22.7387 14.8269 23.1926 14.3649 23.5079 13.8113C23.8231 13.2577 23.9889 12.6316 23.9889 11.9945C23.9889 11.3574 23.8231 10.7312 23.5079 10.1776C23.1926 9.62403 22.7387 9.162 22.1907 8.83696H22.1945ZM21.1595 13.4045C20.4807 13.8148 19.9522 14.4328 19.6523 15.167C19.3524 15.9012 19.2971 16.7126 19.4945 17.4807C19.5648 17.7567 19.562 18.0462 19.4864 18.3208C19.4107 18.5954 19.2649 18.8455 19.0631 19.0465C18.8613 19.2475 18.6107 19.3924 18.3358 19.4671C18.061 19.5417 17.7714 19.5434 17.4957 19.472C16.7257 19.2788 15.9139 19.3385 15.1805 19.6424C14.4471 19.9463 13.8309 20.4782 13.4232 21.1595C13.2789 21.4052 13.0729 21.609 12.8256 21.7506C12.5783 21.8922 12.2982 21.9667 12.0132 21.9667C11.7282 21.9667 11.4482 21.8922 11.2008 21.7506C10.9535 21.609 10.7475 21.4052 10.6032 21.1595C10.2757 20.6111 9.81166 20.157 9.25628 19.8415C8.7009 19.526 8.0732 19.3599 7.43446 19.3595C7.12824 19.3593 6.82326 19.3984 6.52696 19.4757C6.25099 19.5461 5.96145 19.5433 5.68688 19.4676C5.41231 19.392 5.1622 19.2461 4.96119 19.0443C4.76019 18.8426 4.61524 18.5919 4.54063 18.3171C4.46602 18.0422 4.46432 17.7527 4.53571 17.477C4.72953 16.7069 4.67005 15.8949 4.36609 15.1614C4.06212 14.4278 3.52986 13.8117 2.84821 13.4045C2.60244 13.2602 2.39864 13.0542 2.25704 12.8068C2.11543 12.5595 2.04094 12.2795 2.04094 11.9945C2.04094 11.7095 2.11543 11.4294 2.25704 11.1821C2.39864 10.9348 2.60244 10.7287 2.84821 10.5845C3.53036 10.1769 4.06271 9.56 4.36608 8.82556C4.66945 8.09113 4.72763 7.27838 4.53196 6.50821C4.46249 6.232 4.46603 5.94246 4.54225 5.66803C4.61847 5.3936 4.76474 5.14371 4.9667 4.94288C5.16867 4.74205 5.41938 4.59719 5.69424 4.52252C5.96909 4.44785 6.25864 4.44593 6.53446 4.51696C7.30395 4.7099 8.11511 4.64998 8.8479 4.34606C9.58068 4.04214 10.1961 3.51037 10.6032 2.82946C10.7475 2.58369 10.9535 2.37989 11.2008 2.23829C11.4482 2.09668 11.7282 2.02219 12.0132 2.02219C12.2982 2.02219 12.5783 2.09668 12.8256 2.23829C13.0729 2.37989 13.2789 2.58369 13.4232 2.82946C13.8308 3.51161 14.4477 4.04396 15.1821 4.34732C15.9166 4.65069 16.7293 4.70888 17.4995 4.51321C17.7755 4.44322 18.0651 4.44623 18.3397 4.52193C18.6142 4.59763 18.8644 4.74343 19.0656 4.94501C19.2668 5.1466 19.4121 5.39704 19.4873 5.67175C19.5625 5.94647 19.565 6.23601 19.4945 6.51196C19.2991 7.28158 19.3574 8.09373 19.6608 8.82752C19.9642 9.56131 20.4964 10.1775 21.1782 10.5845C21.424 10.7287 21.6278 10.9348 21.7694 11.1821C21.911 11.4294 21.9855 11.7095 21.9855 11.9945C21.9855 12.2795 21.911 12.5595 21.7694 12.8068C21.6278 13.0542 21.424 13.2602 21.1782 13.4045H21.1595Z" fill="#0E243A"/>
<path d="M11.9956 6.91992C10.9921 6.91992 10.0112 7.21749 9.1768 7.775C8.34243 8.33251 7.69211 9.12493 7.30809 10.052C6.92407 10.9791 6.8236 11.9993 7.01937 12.9835C7.21514 13.9677 7.69837 14.8718 8.40794 15.5814C9.11752 16.2909 10.0216 16.7742 11.0058 16.9699C11.99 17.1657 13.0102 17.0652 13.9373 16.6812C14.8644 16.2972 15.6568 15.6469 16.2143 14.8125C16.7718 13.9781 17.0694 12.9972 17.0694 11.9937C17.0674 10.6486 16.5322 9.35926 15.5811 8.40818C14.63 7.4571 13.3407 6.92191 11.9956 6.91992ZM11.9956 15.0387C11.3934 15.0387 10.8047 14.8601 10.3039 14.5255C9.80317 14.1909 9.41288 13.7153 9.18241 13.1589C8.95195 12.6025 8.89164 11.9903 9.00914 11.3996C9.12663 10.8089 9.41664 10.2664 9.84249 9.84053C10.2683 9.41468 10.8109 9.12467 11.4016 9.00718C11.9922 8.88969 12.6045 8.94999 13.1609 9.18046C13.7173 9.41093 14.1929 9.80121 14.5275 10.302C14.862 10.8027 15.0406 11.3914 15.0406 11.9937C15.0396 12.801 14.7185 13.5749 14.1477 14.1457C13.5768 14.7165 12.8029 15.0377 11.9956 15.0387Z" fill="#0E243A"/>
</svg>
