<svg width="49" height="33" viewBox="0 0 49 33" fill="none" xmlns="http://www.w3.org/2000/svg">
<path d="M39.4255 13.4503C38.8038 13.4503 38.1889 13.5111 37.5856 13.6317C37.3103 6.06732 31.1968 0 23.7214 0C16.8471 0 11.0304 5.1929 10.01 12.0194C4.4675 12.1577 0 16.8041 0 22.4953C0 28.2734 4.60434 32.9742 10.2639 32.9742H18.8509C19.5003 32.9742 20.0265 32.437 20.0265 31.774C20.0265 31.111 19.5003 30.5737 18.8509 30.5737H10.2639C5.90081 30.5737 2.35123 26.9498 2.35123 22.4953C2.35123 18.0408 5.90097 14.4169 10.2639 14.4169C10.4782 14.4169 10.7048 14.4276 10.9566 14.4498L12.1479 14.5551L12.2308 13.3373C12.6479 7.20451 17.6952 2.40049 23.7214 2.40049C30.0749 2.40049 35.244 7.67788 35.244 14.1645C35.244 14.4626 35.2301 14.7814 35.2014 15.1388L35.0473 17.054L36.8007 16.3552C37.6403 16.0205 38.5234 15.8509 39.4258 15.8509C43.4086 15.8509 46.6489 19.1591 46.6489 23.2254C46.6489 27.2915 43.4086 30.5997 39.4258 30.5997C39.3211 30.5997 36.1955 30.5933 33.0826 30.5869C29.9925 30.5805 26.915 30.5741 26.8128 30.5741C26.0811 30.5741 25.6987 30.2143 25.6758 29.5049V16.5488L26.9516 18.0958C27.3696 18.6031 28.1113 18.6681 28.6079 18.241C29.1047 17.8142 29.1683 17.0571 28.7501 16.5499L25.9228 13.1209C25.5667 12.689 25.0549 12.4413 24.5187 12.4413C23.9824 12.4413 23.4706 12.689 23.1147 13.1209L20.2874 16.5499C19.8692 17.0571 19.9328 17.8142 20.4295 18.241C20.6501 18.4306 20.9188 18.5231 21.186 18.5231C21.521 18.5231 21.8535 18.3778 22.0859 18.0958L23.3244 16.5938V29.5166C23.3244 30.9066 24.2534 32.9744 26.8127 32.9744C26.9149 32.9744 29.99 32.9808 33.0776 32.987C36.1928 32.9936 39.3208 33 39.4256 33C44.7051 33 49 28.6151 49 23.2252C49 17.8351 44.7049 13.4503 39.4255 13.4503Z" fill="#023047"/>
</svg>
