<svg width="30" height="30" viewBox="0 0 30 30" fill="none" xmlns="http://www.w3.org/2000/svg">
<path d="M26.0729 19.196L25.1002 8.6828C25.0411 8.05111 24.7424 7.46601 24.2654 7.04758C23.7884 6.62916 23.1694 6.40915 22.5353 6.43272C21.9012 6.45629 21.3002 6.72165 20.8556 7.17433C20.411 7.62701 20.1566 8.23268 20.1446 8.86702L20.0677 10.3253C18.3425 7.51446 14.8289 1.80589 14.7869 1.73769C14.6147 1.45277 14.387 1.20534 14.1174 1.01008C13.8477 0.814817 13.5416 0.675703 13.2172 0.600991C12.9007 0.526359 12.5725 0.516012 12.252 0.570563C11.9315 0.625114 11.6253 0.743453 11.3513 0.918563C10.8729 1.22386 10.5126 1.68295 10.3298 2.22026L9.70752 1.20168C9.53535 0.91679 9.3077 0.669374 9.03809 0.474114C8.76848 0.278853 8.46239 0.139726 8.13799 0.0649847C7.82146 -0.00974477 7.49314 -0.0201418 7.17251 0.0344106C6.85188 0.088963 6.54548 0.207353 6.27148 0.382557C5.71247 0.746813 5.31759 1.31471 5.17078 1.96552C5.02397 2.61633 5.13681 3.29873 5.48531 3.86765L5.83995 4.44795C5.27576 4.37591 4.70418 4.50423 4.22495 4.81053C3.66594 5.17478 3.27106 5.74268 3.12425 6.39349C2.97744 7.04429 3.09028 7.7267 3.43878 8.29562L4.65179 10.2807C4.08756 10.208 3.51574 10.3363 3.03679 10.6433C2.4777 11.0075 2.08272 11.5754 1.93583 12.2262C1.78893 12.877 1.90169 13.5594 2.25015 14.1284L8.78141 24.8239C10.5891 27.7817 13.9532 30 17.4944 30C18.8882 29.9999 20.2598 29.6508 21.4839 28.9845C21.4937 28.9791 21.5036 28.9735 21.5132 28.9674L22.2717 28.485C24.1528 27.2886 25.2687 25.9351 25.8894 24.0971C26.3439 22.7526 26.2832 21.527 26.174 20.2858C26.1224 19.6954 26.0729 19.196 26.0729 19.196ZM25.0013 23.7971C24.4535 25.4183 23.4566 26.6199 21.7685 27.6938L21.0247 28.1668C16.732 30.4662 11.837 28.0266 9.58141 24.3348L3.05062 13.6397C2.82912 13.2808 2.75633 12.8496 2.84772 12.4378C2.93911 12.0261 3.18747 11.6661 3.54004 11.4345C3.89102 11.2218 4.31185 11.1564 4.71085 11.2526C5.10985 11.3487 5.45469 11.5986 5.67025 11.9478L9.82448 18.7469C9.89072 18.8514 9.995 18.9261 10.1153 18.9551C10.2356 18.9842 10.3624 18.9653 10.4691 18.9025C10.5216 18.8704 10.5673 18.8283 10.6035 18.7785C10.6398 18.7287 10.6659 18.6723 10.6803 18.6125C10.6947 18.5526 10.6972 18.4905 10.6877 18.4297C10.6781 18.3689 10.6566 18.3105 10.6245 18.258L4.23878 7.80672C4.0172 7.4478 3.94434 7.01662 4.03569 6.60484C4.12704 6.19305 4.37539 5.83311 4.72797 5.60153C5.07924 5.3883 5.50065 5.32278 5.90008 5.41932C6.29952 5.51585 6.64449 5.76657 6.85958 6.11667L13.2465 16.5696C13.3129 16.6739 13.4172 16.7484 13.5373 16.7774C13.6575 16.8065 13.7843 16.7879 13.891 16.7255C13.9436 16.6934 13.9893 16.6512 14.0255 16.6014C14.0618 16.5517 14.0878 16.4953 14.1023 16.4354C14.1167 16.3755 14.1192 16.3134 14.1096 16.2526C14.1 16.1918 14.0786 16.1335 14.0465 16.081L6.28554 3.37899C6.06389 3.02005 5.99099 2.58881 6.08234 2.17697C6.17369 1.76513 6.42209 1.40515 6.77473 1.17356C7.12631 0.959955 7.54825 0.894453 7.94805 0.991415C8.34785 1.08838 8.69288 1.33989 8.90752 1.69082L16.6682 14.3928C16.7345 14.4972 16.8388 14.5718 16.959 14.6008C17.0793 14.6298 17.2061 14.6111 17.3128 14.5484C17.4189 14.4835 17.4949 14.3792 17.5241 14.2584C17.5532 14.1375 17.5332 14.01 17.4684 13.9039L11.3649 3.91453C11.1433 3.55561 11.0704 3.12437 11.1618 2.71255C11.2532 2.30072 11.5017 1.9408 11.8544 1.70933C12.0233 1.60134 12.2123 1.52843 12.41 1.49494C12.6077 1.46144 12.8101 1.46803 13.0053 1.51433C13.2085 1.56134 13.4002 1.64872 13.569 1.77128C13.7378 1.89383 13.8802 2.04907 13.9879 2.22776C14.039 2.31096 19.1254 10.5751 20.0564 12.1009C20.1086 12.1863 20.1867 12.2527 20.2794 12.2905C20.3721 12.3283 20.4744 12.3355 20.5715 12.311C20.6685 12.2864 20.7551 12.2315 20.8187 12.1541C20.8822 12.0768 20.9193 11.9812 20.9246 11.8813L21.0812 8.90662C21.0838 8.5093 21.2393 8.12824 21.5154 7.84249C21.7916 7.55675 22.1671 7.38826 22.5641 7.37198C22.9612 7.3557 23.3493 7.49288 23.6478 7.75506C23.9464 8.01724 24.1326 8.38429 24.1678 8.78006C24.1678 8.78006 25.1886 19.7814 25.2401 20.3676C25.344 21.5491 25.3979 22.6229 25.0013 23.7971ZM3.89843 25.8109C2.83474 25.4548 1.94004 24.3219 1.45718 23.38C0.893283 22.2844 0.783071 21.011 1.15035 19.8349C1.18828 19.7165 1.1776 19.5878 1.12067 19.4773C1.06375 19.3667 0.965235 19.2833 0.846808 19.2454C0.728382 19.2075 0.599742 19.2182 0.489187 19.2751C0.378632 19.332 0.295219 19.4305 0.257298 19.5489C-0.184829 20.9615 -0.0534858 22.4913 0.622959 23.8079C0.897907 24.3446 1.92621 26.1397 3.60098 26.7001C3.65938 26.7196 3.72104 26.7274 3.78247 26.7231C3.84389 26.7188 3.90386 26.7025 3.95896 26.675C4.01406 26.6475 4.06321 26.6095 4.1036 26.563C4.14399 26.5165 4.17483 26.4626 4.19436 26.4042C4.21389 26.3458 4.22173 26.2841 4.21743 26.2227C4.21313 26.1613 4.19677 26.1013 4.16929 26.0462C4.14181 25.9911 4.10375 25.942 4.05727 25.9016C4.0108 25.8612 3.95683 25.8304 3.89843 25.8109ZM5.07042 23.4667C4.51959 23.2825 4.04845 22.6797 3.79061 22.1765C3.49253 21.5979 3.43401 20.9252 3.6277 20.3038C3.64696 20.2451 3.6544 20.1831 3.64961 20.1215C3.64482 20.0599 3.62788 19.9998 3.59978 19.9448C3.57167 19.8897 3.53296 19.8407 3.48585 19.8007C3.43875 19.7607 3.3842 19.7304 3.32533 19.7115C3.26646 19.6926 3.20444 19.6856 3.14284 19.6908C3.08124 19.696 3.02127 19.7133 2.96639 19.7417C2.91151 19.7702 2.86281 19.8092 2.82308 19.8566C2.78334 19.9039 2.75337 19.9587 2.73488 20.0177C2.46602 20.8754 2.54551 21.8045 2.95616 22.6042C3.12211 22.9281 3.74373 24.0116 4.77297 24.3559C4.89097 24.3938 5.01913 24.3841 5.13005 24.3288C5.24096 24.2735 5.32582 24.177 5.36647 24.0599C5.40583 23.942 5.39675 23.8132 5.34124 23.702C5.28573 23.5908 5.18832 23.5061 5.07042 23.4667ZM29.0381 4.84076C28.7052 4.34483 27.4871 2.70025 25.7889 2.35479C25.667 2.33002 25.5403 2.35466 25.4366 2.42329C25.333 2.49192 25.2608 2.59893 25.236 2.72076C25.2113 2.84259 25.2359 2.96927 25.3045 3.07293C25.3732 3.1766 25.4802 3.24875 25.602 3.27352C26.6732 3.49149 27.6772 4.496 28.2596 5.36341C28.9415 6.37913 29.2035 7.61946 28.9905 8.82413C28.9794 8.88468 28.9802 8.94684 28.9931 9.00705C29.006 9.06726 29.0307 9.12434 29.0656 9.17503C29.1006 9.22572 29.1452 9.26903 29.1969 9.30248C29.2486 9.33593 29.3064 9.35886 29.3669 9.36998C29.395 9.37519 29.4235 9.37778 29.452 9.37771C29.5616 9.37759 29.6677 9.3391 29.7518 9.26893C29.8359 9.19876 29.8928 9.10133 29.9126 8.99358C30.1692 7.54831 29.8557 6.05985 29.0381 4.84076ZM24.9385 4.81217C24.8166 4.78743 24.6899 4.81211 24.5862 4.88079C24.4825 4.94946 24.4104 5.05651 24.3856 5.17837C24.3609 5.30023 24.3856 5.42693 24.4543 5.5306C24.5229 5.63426 24.63 5.7064 24.7519 5.73113C25.3043 5.84363 25.8332 6.378 26.1437 6.84041C26.5043 7.37717 26.6429 8.0327 26.5305 8.66944C26.5193 8.72998 26.5202 8.79212 26.5331 8.85232C26.546 8.91252 26.5706 8.96959 26.6055 9.02027C26.6405 9.07096 26.685 9.11427 26.7367 9.14773C26.7884 9.18119 26.8461 9.20415 26.9067 9.21529C26.9672 9.22643 27.0294 9.22554 27.0896 9.21267C27.1498 9.19979 27.2069 9.17519 27.2576 9.14026C27.3083 9.10533 27.3516 9.06076 27.385 9.00909C27.4185 8.95742 27.4415 8.89967 27.4526 8.83913C27.6086 7.96168 27.4184 7.05791 26.9219 6.31776C26.7211 6.01847 25.9839 5.02474 24.9385 4.81217Z" fill="white"/>
</svg>
