<svg width="25" height="25" viewBox="0 0 25 25" fill="none" xmlns="http://www.w3.org/2000/svg">
<path d="M13.7077 2.83317C15.951 2.83317 18.1024 3.72431 19.6886 5.31056C21.2749 6.8968 22.166 9.04821 22.166 11.2915C22.166 11.612 22.2933 11.9193 22.5199 12.1459C22.7465 12.3725 23.0539 12.4998 23.3743 12.4998C23.6948 12.4998 24.0022 12.3725 24.2288 12.1459C24.4554 11.9193 24.5827 11.612 24.5827 11.2915C24.5827 8.40727 23.4369 5.64118 21.3975 3.60172C19.358 1.56226 16.5919 0.416504 13.7077 0.416504C13.3872 0.416504 13.0799 0.54381 12.8533 0.770416C12.6267 0.997023 12.4993 1.30437 12.4993 1.62484C12.4993 1.94531 12.6267 2.25265 12.8533 2.47926C13.0799 2.70586 13.3872 2.83317 13.7077 2.83317ZM24.2806 17.2244C24.2141 17.0304 24.0994 16.8566 23.9472 16.7192C23.795 16.5818 23.6103 16.4853 23.4106 16.439L16.1606 14.7836C15.9638 14.739 15.759 14.7443 15.5648 14.7992C15.3706 14.8541 15.1933 14.9567 15.0489 15.0978C14.8798 15.2548 14.8677 15.2669 14.0823 16.7653C11.4761 15.5644 9.38788 13.4675 8.19768 10.8565C9.73227 10.0832 9.74435 10.0832 9.90143 9.90192C10.0425 9.75759 10.1451 9.58025 10.2 9.38606C10.2548 9.19188 10.2602 8.98705 10.2156 8.79025L8.56018 1.62484C8.51384 1.42509 8.41743 1.24043 8.28002 1.08823C8.14262 0.936029 7.96874 0.821298 7.77477 0.754837C7.49258 0.654049 7.20118 0.5812 6.90477 0.537337C6.59936 0.466523 6.28771 0.426049 5.97435 0.416504C4.50019 0.416504 3.0864 1.00211 2.04401 2.0445C1.00162 3.08689 0.416016 4.50068 0.416016 5.97484C0.42241 10.9081 2.38498 15.6375 5.87333 19.1259C9.36169 22.6142 14.0911 24.5768 19.0243 24.5832C19.7543 24.5832 20.4771 24.4394 21.1514 24.1601C21.8258 23.8807 22.4385 23.4713 22.9547 22.9552C23.4708 22.439 23.8802 21.8263 24.1596 21.1519C24.4389 20.4775 24.5827 19.7548 24.5827 19.0248C24.5831 18.7173 24.5588 18.4102 24.5102 18.1065C24.4594 17.8064 24.3826 17.5112 24.2806 17.2244Z" fill="#FFB703"/>
</svg>
