<svg width="425" height="61" viewBox="0 0 425 61" fill="none" xmlns="http://www.w3.org/2000/svg">
<path d="M16.512 59H0.144L19.152 29.432L1.112 1.448H17.92L28.656 19.752H28.832L39.568 1.448H56.024L37.808 29.432L56.904 59H40.008L28.392 39.024H28.216L16.512 59ZM103.271 18.696H89.8951C89.8364 16.936 89.2204 15.4987 88.0471 14.384C86.8737 13.2693 85.1137 12.712 82.7671 12.712C80.3617 12.712 78.5724 13.2987 77.3991 14.472C76.2257 15.5867 75.6391 16.9653 75.6391 18.608C75.6391 19.8987 76.1671 20.9253 77.2231 21.688C78.2791 22.4507 79.6284 23.0373 81.2711 23.448C82.9724 23.8 84.8204 24.152 86.8151 24.504C88.8684 24.7973 90.8924 25.296 92.8871 26C94.9404 26.6453 96.7884 27.5253 98.4311 28.64C100.132 29.7547 101.511 31.4267 102.567 33.656C103.623 35.8853 104.151 38.5547 104.151 41.664C104.151 47.3547 102.186 51.9013 98.2551 55.304C94.3244 58.648 89.0737 60.32 82.5031 60.32C76.0497 60.32 70.8577 58.7067 66.9271 55.48C62.9964 52.1947 60.9724 47.7653 60.8551 42.192H74.7591C74.7591 46.1227 77.3404 48.088 82.5031 48.088C87.6657 48.088 90.2471 46.1227 90.2471 42.192C90.2471 40.9013 89.7191 39.8747 88.6631 39.112C87.6071 38.3493 86.2577 37.792 84.6151 37.44C82.9724 37.0293 81.1244 36.6773 79.0711 36.384C77.0764 36.032 75.0524 35.5333 72.9991 34.888C71.0044 34.184 69.1857 33.2747 67.5431 32.16C65.9004 31.0453 64.5511 29.3733 63.4951 27.144C62.4391 24.9147 61.9111 22.2453 61.9111 19.136C61.9111 13.6213 63.8177 9.13333 67.6311 5.672C71.4444 2.21067 76.4311 0.479998 82.5911 0.479998C88.6337 0.479998 93.5324 2.152 97.2871 5.496C101.042 8.84 103.036 13.24 103.271 18.696ZM146.538 35.944V1.448H160.442V35.944C160.442 43.4533 158.3 49.3787 154.018 53.72C149.794 58.0027 143.839 60.144 136.154 60.144C128.292 60.144 122.22 58.0027 117.938 53.72C113.655 49.3787 111.514 43.4533 111.514 35.944V1.448H125.77V35.944C125.77 43.2773 129.202 46.944 136.066 46.944C143.047 46.944 146.538 43.2773 146.538 35.944ZM210.177 18.696H196.801C196.743 16.936 196.127 15.4987 194.953 14.384C193.78 13.2693 192.02 12.712 189.673 12.712C187.268 12.712 185.479 13.2987 184.305 14.472C183.132 15.5867 182.545 16.9653 182.545 18.608C182.545 19.8987 183.073 20.9253 184.129 21.688C185.185 22.4507 186.535 23.0373 188.177 23.448C189.879 23.8 191.727 24.152 193.721 24.504C195.775 24.7973 197.799 25.296 199.793 26C201.847 26.6453 203.695 27.5253 205.337 28.64C207.039 29.7547 208.417 31.4267 209.473 33.656C210.529 35.8853 211.057 38.5547 211.057 41.664C211.057 47.3547 209.092 51.9013 205.161 55.304C201.231 58.648 195.98 60.32 189.409 60.32C182.956 60.32 177.764 58.7067 173.833 55.48C169.903 52.1947 167.879 47.7653 167.761 42.192H181.665C181.665 46.1227 184.247 48.088 189.409 48.088C194.572 48.088 197.153 46.1227 197.153 42.192C197.153 40.9013 196.625 39.8747 195.569 39.112C194.513 38.3493 193.164 37.792 191.521 37.44C189.879 37.0293 188.031 36.6773 185.977 36.384C183.983 36.032 181.959 35.5333 179.905 34.888C177.911 34.184 176.092 33.2747 174.449 32.16C172.807 31.0453 171.457 29.3733 170.401 27.144C169.345 24.9147 168.817 22.2453 168.817 19.136C168.817 13.6213 170.724 9.13333 174.537 5.672C178.351 2.21067 183.337 0.479998 189.497 0.479998C195.54 0.479998 200.439 2.152 204.193 5.496C207.948 8.84 209.943 13.24 210.177 18.696ZM244.163 59H229.907V14.648H214.243V1.448H259.915V14.648H244.163V59ZM315.77 59H301.514V42.632H278.986V59H265.082V25.56C265.082 17.64 267.252 11.4507 271.594 6.992C275.994 2.53333 282.242 0.303995 290.338 0.303995C298.492 0.303995 304.77 2.53333 309.17 6.992C313.57 11.4507 315.77 17.64 315.77 25.56V59ZM301.514 30.312V25.56C301.514 17.5227 297.759 13.504 290.25 13.504C282.74 13.504 278.986 17.5227 278.986 25.56V30.312H301.514ZM340.472 59H326.216V1.448H340.472V59ZM400.215 59H385.959V24.504C385.959 17.1707 382.498 13.504 375.575 13.504C368.653 13.504 365.191 17.1707 365.191 24.504V59H350.935V24.504C350.935 16.9947 353.077 11.0987 357.359 6.816C361.642 2.47466 367.714 0.303995 375.575 0.303995C383.437 0.303995 389.509 2.47466 393.791 6.816C398.074 11.0987 400.215 16.9947 400.215 24.504V59ZM422.485 57.768C420.901 59.352 418.906 60.144 416.501 60.144C414.096 60.144 412.072 59.352 410.429 57.768C408.845 56.1253 408.053 54.1013 408.053 51.696C408.053 49.2907 408.845 47.296 410.429 45.712C412.072 44.0693 414.096 43.248 416.501 43.248C418.906 43.248 420.901 44.0693 422.485 45.712C424.128 47.296 424.949 49.2907 424.949 51.696C424.949 54.1013 424.128 56.1253 422.485 57.768Z" fill="url(#paint0_linear_740_3862)"/>
<defs>
<linearGradient id="paint0_linear_740_3862" x1="226.5" y1="-13" x2="226.5" y2="93" gradientUnits="userSpaceOnUse">
<stop stop-color="white"/>
<stop offset="1" stop-color="white"/>
</linearGradient>
</defs>
</svg>
