<svg width="21" height="26" viewBox="0 0 21 26" fill="none" xmlns="http://www.w3.org/2000/svg">
<path d="M3.80705 1.65864C4.0912 1.24226 4.05761 0.610141 3.73202 0.246757C3.40643 -0.116628 2.91213 -0.0736801 2.62797 0.3427L1.28022 2.31755C0.515724 3.43775 0.0835549 4.86605 0.0593084 6.35256L0.0001737 9.97848C-0.00884048 10.531 0.334116 10.9883 0.76617 10.9998C1.19823 11.0113 1.55579 10.5727 1.5648 10.0202L1.62393 6.39429C1.64051 5.3772 1.93621 4.39996 2.45929 3.6335L3.80705 1.65864Z" fill="#023047"/>
<path fill-rule="evenodd" clip-rule="evenodd" d="M4.00458 8.53874C4.17722 5.77852 6.46618 3.62825 9.23183 3.62825H9.92464V2.69605C9.92464 2.00961 10.4811 1.45312 11.1676 1.45312C11.854 1.45312 12.4105 2.00961 12.4105 2.69605V3.62825H13.1033C15.8689 3.62825 18.1579 5.77852 18.3305 8.53874L18.6052 12.9306C18.7099 14.6051 19.2721 16.2187 20.2305 17.5957C21.0963 18.84 20.3254 20.5585 18.8204 20.7391L14.5856 21.2472V22.5829C14.5856 24.4706 13.0553 26.001 11.1676 26.001C9.27981 26.001 7.74949 24.4706 7.74949 22.5829V21.2472L3.51468 20.7391C2.00958 20.5585 1.23869 18.84 2.10462 17.5957C3.063 16.2187 3.62515 14.6051 3.72989 12.9306L4.00458 8.53874ZM9.61399 22.5831C9.61399 23.4411 10.3095 24.1367 11.1677 24.1367C12.0256 24.1367 12.7213 23.4411 12.7213 22.5831V21.6509H9.61399V22.5831Z" fill="#023047"/>
</svg>
